<svg width="24" height="24" viewBox="0 0 24 24" fill="none" xmlns="http://www.w3.org/2000/svg">
<path d="M20.8401 4.61085C20.3294 4.09985 19.7229 3.6945 19.0555 3.41793C18.388 3.14137 17.6726 2.99902 16.9501 2.99902C16.2276 2.99902 15.5122 3.14137 14.8448 3.41793C14.1773 3.6945 13.5709 4.09985 13.0601 4.61085L12.0001 5.67085L10.9401 4.61085C9.90843 3.57916 8.50915 2.99956 7.05012 2.99956C5.59109 2.99956 4.19181 3.57916 3.16012 4.61085C2.12843 5.64254 1.54883 7.04182 1.54883 8.50085C1.54883 9.95988 2.12843 11.3592 3.16012 12.3908L4.22012 13.4508L12.0001 21.2308L19.7801 13.4508L20.8401 12.3908C21.3511 11.8801 21.7565 11.2737 22.033 10.6062C22.3096 9.93875 22.4519 9.22334 22.4519 8.50085C22.4519 7.77836 22.3096 7.06295 22.033 6.39549C21.7565 5.72803 21.3511 5.12161 20.8401 4.61085V4.61085Z" stroke="white" stroke-width="2" stroke-linecap="round" stroke-linejoin="round"/>
</svg>
