<svg width="20" height="20" viewBox="0 0 20 20" fill="none" xmlns="http://www.w3.org/2000/svg">
<g clip-path="url(#clip0_62_22575)">
<path d="M10.0003 1.66699C5.40033 1.66699 1.66699 5.40033 1.66699 10.0003C1.66699 14.6003 5.40033 18.3337 10.0003 18.3337C14.6003 18.3337 18.3337 14.6003 18.3337 10.0003C18.3337 5.40033 14.6003 1.66699 10.0003 1.66699ZM6.12533 15.417C7.21699 14.6337 8.55033 14.167 10.0003 14.167C11.4503 14.167 12.7837 14.6337 13.8753 15.417C12.7837 16.2003 11.4503 16.667 10.0003 16.667C8.55033 16.667 7.21699 16.2003 6.12533 15.417ZM15.117 14.267C13.7087 13.167 11.9337 12.5003 10.0003 12.5003C8.06699 12.5003 6.29199 13.167 4.88366 14.267C3.91699 13.1087 3.33366 11.6253 3.33366 10.0003C3.33366 6.31699 6.31699 3.33366 10.0003 3.33366C13.6837 3.33366 16.667 6.31699 16.667 10.0003C16.667 11.6253 16.0837 13.1087 15.117 14.267Z" fill="#F98B1D"/>
<path d="M10.0007 5C8.39232 5 7.08398 6.30833 7.08398 7.91667C7.08398 9.525 8.39232 10.8333 10.0007 10.8333C11.609 10.8333 12.9173 9.525 12.9173 7.91667C12.9173 6.30833 11.609 5 10.0007 5ZM10.0007 9.16667C9.30898 9.16667 8.75065 8.60833 8.75065 7.91667C8.75065 7.225 9.30898 6.66667 10.0007 6.66667C10.6923 6.66667 11.2507 7.225 11.2507 7.91667C11.2507 8.60833 10.6923 9.16667 10.0007 9.16667Z" fill="#F98B1D"/>
</g>
<defs>
<clipPath id="clip0_62_22575">
<rect width="20" height="20" fill="white"/>
</clipPath>
</defs>
</svg>
